<svg width="40" height="40" viewBox="0 0 24 24" fill="none" stroke="#8f9cf0" stroke-width="1.8" stroke-linecap="round" stroke-linejoin="round" xmlns="http://www.w3.org/2000/svg"><rect x="2.6" y="2" width="5.6" height="9.5" rx="2.8" fill="rgba(143,156,240,.18)"/><path d="M0.9 8.5 A4.5 4.5 0 0 0 9.9 8.5 M5.4 13 V15.5" stroke-width="1.6"/><path d="M22.5 14.5 A4.5 4.5 0 0 0 15 14.2"/><rect x="16.2" y="15" width="5" height="6.2" rx="2" fill="rgba(143,156,240,.18)"/><path d="M16.4 20 L13.2 21.8"/><circle cx="12.6" cy="22.1" r="1" fill="#8f9cf0" stroke="none"/><path d="M13.5 4 C17.4 4 20.6 6.1 22 9.4 M22 9.4 L19.5 8.9 M22 9.4 L22.4 6.9" stroke-width="2.2"/><path d="M10.5 20 C6.6 20 3.4 17.9 2 14.6 M2 14.6 L4.5 15.1 M2 14.6 L1.6 17.1" stroke-width="2.2"/></svg>
